<?xml version="1.0" standalone="no"?>
<!DOCTYPE svg PUBLIC "-//W3C//DTD SVG 20010904//EN"
 "http://www.w3.org/TR/2001/REC-SVG-20010904/DTD/svg10.dtd">
<svg version="1.0" xmlns="http://www.w3.org/2000/svg"
 width="12" height="12" viewBox="0 0 452.000000 452.000000"
 preserveAspectRatio="xMidYMid meet">

<g transform="translate(0.000000,452.000000) scale(0.100000,-0.100000)"
fill="#7289da" stroke="none">
<path d="M1665 3883 c-226 -28 -518 -114 -694 -204 -204 -104 -260 -158 -353
-343 -240 -478 -438 -1310 -438 -1848 0 -63 2 -70 50 -141 57 -86 161 -186
260 -252 94 -62 275 -148 400 -189 190 -62 426 -103 480 -84 20 7 55 46 116
129 47 66 85 122 83 124 -2 2 -67 24 -144 50 -222 74 -473 207 -540 287 -32
37 -32 79 -1 115 39 45 84 38 185 -31 204 -139 476 -239 796 -293 159 -26 631
-26 790 0 321 54 590 153 796 293 101 69 146 76 185 31 38 -44 32 -83 -21
-133 -92 -89 -345 -216 -564 -284 -56 -17 -101 -34 -101 -37 0 -3 38 -58 85
-123 60 -82 95 -121 115 -128 51 -18 317 28 479 83 317 108 546 263 671 456
36 57 40 68 40 129 0 166 -32 458 -76 700 -97 529 -320 1147 -478 1327 -133
151 -509 304 -883 358 -138 20 -159 13 -191 -64 l-21 -51 22 -4 c248 -51 425
-106 592 -185 193 -91 237 -130 221 -196 -18 -70 -87 -83 -174 -32 -326 189
-826 297 -1234 266 -349 -26 -630 -101 -897 -239 -68 -36 -127 -60 -146 -60
-55 0 -95 58 -81 115 18 72 412 246 691 304 55 12 110 23 122 26 l22 5 -21 51
c-14 32 -31 55 -49 65 -28 14 -36 15 -94 7z m133 -1382 c63 -32 120 -94 155
-169 28 -60 32 -76 31 -162 0 -82 -3 -103 -27 -154 -38 -82 -85 -136 -147
-170 -153 -83 -338 -14 -416 156 -26 57 -29 73 -29 168 0 93 3 112 26 161 43
92 103 149 194 186 46 19 162 10 213 -16z m1145 13 c68 -23 140 -92 179 -172
31 -62 33 -73 33 -172 0 -95 -3 -111 -29 -168 -58 -126 -175 -200 -300 -190
-113 9 -196 71 -253 185 -36 73 -38 81 -38 172 1 82 4 104 27 153 34 74 69
119 118 153 80 55 174 69 263 39z"/>
</g>
</svg>
